# xmcd
#
# Track frame offsets: 
#        182
#        12987
#        25467
#        37445
#        50920
#        62787
#        76257
#        87657
#        105290
#        123380
#        137180
#        151322
#        163582
#        175745
#        188697
#        200232
#        217482
#        230120
#        242595
#        258117
#
# Disc length: 3621 seconds
#
# Revision: 9
# Processed by: cddbd v1.5.2PL0 Copyright (c) Steve Scherf et al.
# Submitted via: ExactAudioCopy v1.3
#
DISCID=290e2314
DTITLE=Otis Redding - The Otis Redding Story Disc 2
DYEAR=1987
DGENRE=Soul
TTITLE0=You Don't Miss Your Water
TTITLE1=Satisfaction
TTITLE2=Ole Man Trouble
TTITLE3=Down In The Valley
TTITLE4=I Can't Turn You Loose
TTITLE5=Just One More Day
TTITLE6=Papa's Got A Brand New Bag
TTITLE7=Good To Me
TTITLE8=Cigarettes And Coffee
TTITLE9=Chain Gang
TTITLE10=My Lover's Prayer
TTITLE11=It's Growing
TTITLE12=Fa-Fa-Fa-Fa-Fa (Sad Song)
TTITLE13=I'm Sick Y'All
TTITLE14=Sweet Lorene
TTITLE15=Try A Little Tenderness
TTITLE16=Day Tripper
TTITLE17=Ton Of Joy
TTITLE18=Hawg For You
TTITLE19=Otis Redding duet with Carla Thomas - Tramp
EXTD=
EXTT0=
EXTT1=
EXTT2=
EXTT3=
EXTT4=
EXTT5=
EXTT6=
EXTT7=
EXTT8=
EXTT9=
EXTT10=
EXTT11=
EXTT12=
EXTT13=
EXTT14=
EXTT15=
EXTT16=
EXTT17=
EXTT18=
EXTT19=
PLAYORDER=
